<svg width="245pt" height="81pt" viewBox="0.00 0.00 245.00 81.00" xmlns="http://www.w3.org/2000/svg" xmlns:xlink="http://www.w3.org/1999/xlink">
<g id="graph0" class="graph" transform="scale(1 1) rotate(0) translate(4 77)">
<title>SUPERVISOR</title>
<polygon fill="white" stroke="none" points="-4,4 -4,-77 240.94,-77 240.94,4 -4,4"/>
<!-- 1 -->
<g id="node1" class="node">
<title>1</title>
<ellipse fill="none" stroke="black" cx="58.6" cy="-35" rx="18" ry="18"/>
<text xml:space="preserve" text-anchor="middle" x="58.6" y="-30.8" font-family="Times,serif" font-size="14.00">1</text>
</g>
<!-- 2 -->
<g id="node2" class="node">
<title>2</title>
<ellipse fill="none" stroke="black" cx="139.15" cy="-55" rx="18" ry="18"/>
<text xml:space="preserve" text-anchor="middle" x="139.15" y="-50.8" font-family="Times,serif" font-size="14.00">2</text>
</g>
<!-- 1&#45;&gt;2 -->
<g id="edge2" class="edge">
<title>1-&gt;2</title>
<path fill="none" stroke="black" d="M74.36,-44.38C80.4,-47.73 87.6,-51.13 94.6,-53 99.37,-54.27 104.54,-55.03 109.59,-55.44"/>
<polygon fill="black" stroke="black" points="109.29,-58.93 119.42,-55.83 109.57,-51.94 109.29,-58.93"/>
<text xml:space="preserve" text-anchor="middle" x="98.88" y="-58.86" font-family="Times,serif" font-size="14.00">E</text>
</g>
<!-- 2&#45;&gt;1 -->
<g id="edge3" class="edge">
<title>2-&gt;1</title>
<path fill="none" stroke="black" d="M124.78,-43.67C118.61,-39.17 110.94,-34.51 103.15,-32.2 98.2,-30.73 92.79,-30.24 87.52,-30.32"/>
<polygon fill="black" stroke="black" points="87.64,-26.79 77.96,-31.09 88.21,-33.77 87.64,-26.79"/>
<text xml:space="preserve" text-anchor="middle" x="98.88" y="-36.4" font-family="Times,serif" font-size="14.00">T</text>
</g>
<!-- 3 -->
<g id="node3" class="node">
<title>3</title>
<ellipse fill="none" stroke="black" cx="218.94" cy="-18" rx="18" ry="18"/>
<text xml:space="preserve" text-anchor="middle" x="218.94" y="-13.8" font-family="Times,serif" font-size="14.00">3</text>
</g>
<!-- 2&#45;&gt;3 -->
<g id="edge4" class="edge">
<title>2-&gt;3</title>
<path fill="none" stroke="black" d="M155.89,-47.51C166.23,-42.6 179.99,-36.05 191.92,-30.37"/>
<polygon fill="black" stroke="black" points="193.33,-33.58 200.85,-26.13 190.32,-27.26 193.33,-33.58"/>
<text xml:space="preserve" text-anchor="middle" x="179.04" y="-41.81" font-family="Times,serif" font-size="14.00">F</text>
</g>
<!-- 3&#45;&gt;1 -->
<g id="edge5" class="edge">
<title>3-&gt;1</title>
<path fill="none" stroke="black" d="M201,-14.23C181.57,-10.51 148.8,-6.04 121.15,-11.2 108.95,-13.48 96.05,-18.09 85.23,-22.65"/>
<polygon fill="black" stroke="black" points="83.91,-19.41 76.2,-26.68 86.76,-25.8 83.91,-19.41"/>
<text xml:space="preserve" text-anchor="middle" x="139.15" y="-15.4" font-family="Times,serif" font-size="14.00">R</text>
</g>
<!-- init -->
<g id="node4" class="node">
<title>init</title>
<ellipse fill="black" stroke="black" cx="1.8" cy="-35" rx="1.8" ry="1.8"/>
</g>
<!-- init&#45;&gt;1 -->
<g id="edge1" class="edge">
<title>init-&gt;1</title>
<path fill="none" stroke="black" d="M3.75,-35C6.96,-35 17.8,-35 28.92,-35"/>
<polygon fill="black" stroke="black" points="28.79,-38.5 38.79,-35 28.78,-31.5 28.79,-38.5"/>
</g>
</g>
</svg>